<?xml version="1.0" standalone="no"?>
<!DOCTYPE svg PUBLIC "-//W3C//DTD SVG 20010904//EN"
 "http://www.w3.org/TR/2001/REC-SVG-20010904/DTD/svg10.dtd">
<svg version="1.0" xmlns="http://www.w3.org/2000/svg"
 width="122.000000pt" height="122.000000pt" viewBox="0 0 122.000000 122.000000"
 preserveAspectRatio="xMidYMid meet">
<metadata>
Created by potrace 1.11, written by Peter Selinger 2001-2013
</metadata>
<g transform="translate(0.000000,122.000000) scale(0.100000,-0.100000)"
fill="#000000" stroke="none">
<path d="M222 1158 c-15 -19 -16 -1016 -1 -1034 9 -11 58 -14 231 -14 l219 0
90 62 c86 60 89 63 89 100 l0 38 68 0 c84 0 133 13 173 47 106 90 82 255 -46
314 -36 17 -70 19 -367 19 l-328 0 0 123 0 122 41 48 c50 58 72 58 103 2 27
-51 32 -55 84 -55 38 0 42 -2 42 -25 0 -18 5 -25 20 -25 15 0 20 7 20 24 0 22
5 25 47 28 45 3 48 5 80 58 29 48 33 62 31 115 l-3 60 -291 3 c-226 2 -294 -1
-302 -10z m558 -58 c0 -19 -7 -20 -178 -20 l-179 0 -61 -64 -62 -64 1 -257 0
-258 61 -63 61 -64 194 0 193 0 0 -24 c0 -36 -130 -126 -182 -126 -30 0 -37 4
-40 22 -5 34 -38 37 -38 4 0 -21 -5 -26 -25 -26 -20 0 -25 5 -25 25 0 18 -5
25 -20 25 -15 0 -20 -7 -20 -25 0 -20 -5 -25 -25 -25 -20 0 -25 5 -25 25 0 18
-5 25 -20 25 -15 0 -20 -7 -20 -25 0 -24 -3 -25 -55 -25 l-55 0 0 480 0 480
260 0 c253 0 260 -1 260 -20z m-38 -100 c-17 -30 -18 -30 -102 -30 -84 0 -85
0 -102 30 l-17 30 119 0 119 0 -17 -30z m305 -380 c85 -51 85 -189 0 -240 -30
-19 -52 -20 -321 -20 l-289 0 -43 45 -44 45 0 95 0 95 333 0 c312 0 334 -1
364 -20z"/>
<path d="M899 560 l-38 -40 -211 0 c-203 0 -210 -1 -210 -20 0 -19 7 -20 218
-20 l217 0 17 -30 c33 -59 107 -63 153 -8 55 65 7 158 -81 158 -19 0 -39 -13
-65 -40z m117 -35 c15 -23 15 -27 0 -50 -31 -48 -96 -26 -96 32 0 47 68 60 96
18z"/>
<path d="M506 789 c-8 -12 -19 -18 -26 -14 -6 4 -18 4 -26 1 -11 -4 -12 -10
-5 -24 9 -18 25 -19 189 -21 148 -1 181 1 191 13 17 20 6 36 -25 36 -14 0 -32
7 -40 15 -9 8 -28 15 -43 15 -16 0 -34 -7 -41 -15 -7 -8 -27 -15 -45 -15 -20
0 -35 6 -39 15 -9 24 -72 19 -90 -6z"/>
</g>
</svg>
